<svg xmlns:dc="http://purl.org/dc/elements/1.1/" xmlns:cc="http://creativecommons.org/ns#" xmlns:rdf="http://www.w3.org/1999/02/22-rdf-syntax-ns#" xmlns:svg="http://www.w3.org/2000/svg" xmlns="http://www.w3.org/2000/svg" xmlns:xlink="http://www.w3.org/1999/xlink" style="display: block;margin-left: auto;margin-right: auto;" version="1.1" height="227" width="935"><rect id="backgroundrect" width="100%" height="100%" x="0" y="0" fill="none" stroke="none"/>

  <metadata id="metadata71">
    <rdf:RDF>
      <cc:Work rdf:about="">
        <dc:format>image/svg+xml</dc:format>
        <dc:type rdf:resource="http://purl.org/dc/dcmitype/StillImage"/>
      </cc:Work>
    </rdf:RDF>
  </metadata>

  <defs id="defs4">
    <style id="style2" type="text/css"><![CDATA[

.g2_1{
stroke: #231F20;
stroke-width: 1.5277778;
}
.g3_1{
fill: #73BF43;
}
.g4_1{
fill: none;
}

]]></style>
  </defs>
  
  
  <defs id="defs63">
    <path transform="scale(0.001,-0.001)" id="f0_4" d="M466,-13.7C317.8,-13.7,224.6,81,200.1,223.1l91.7,29C311.7,154.3,359,82.5,466,82.5c84,0,149.7,45.8,149.7,134.4c0,97.8,-82.5,122.3,-160.4,154.4C339.2,420.1,229.2,450.7,229.2,600.4c0,134.5,108.4,209.3,233.7,209.3c132.9,0,210.9,-76.4,242.9,-200.1l-97.7,-29C589.7,658.5,548.5,713.5,461.4,713.5c-65.7,0,-129.9,-33.6,-129.9,-105.4c0,-74.9,45.9,-96.3,107,-123.8L608.1,409.4c71.8,-39.7,110,-103.8,110,-186.3C718.1,71.8,612.6,-13.7,466,-13.7Z"/>
    <path transform="scale(0.001,-0.001)" id="f0_5" d="M409.4,0l0,704.3l-220,0l0,91.7l537.8,0l0,-91.7l-215.4,0L511.8,0Z"/>
    <path transform="scale(0.001,-0.001)" id="f0_6" d="M239.9,0l0,796l496.5,0l0,-91.7l-394.2,0l0,-238.3l325.4,0l0,-91.7l-325.4,0l0,-282.6l394.2,0L736.4,0Z"/>
    <path transform="scale(0.001,-0.001)" id="f0_8" d="M148.2,0l32.1,796l134.4,0L458.3,450.7L601.9,796l134.5,0L768.5,0L660,0L640.1,644.7l-3,0L458.3,224.6L279.6,644.7l-3.1,0L256.7,0Z"/>
    <path transform="scale(0.001,-0.001)" id="f1_2" d="M111.5,0l0,739.4l134.5,0L246,0Zm64.2,864.7c-47.4,0,-81,36.7,-81,82.5c0,47.4,35.2,84.1,84.1,84.1c50.4,0,82.5,-36.7,82.5,-84.1c1.5,-45.8,-32.1,-82.5,-85.6,-82.5Z"/>
    <path transform="scale(0.001,-0.001)" id="f0_9" d="M388.1,0l0,226.1l140.5,0L528.6,0Z"/>
    <path transform="scale(0.001,-0.001)" id="f0_2" d="M458.3,82.5C612.6,82.5,634,281.1,634,397.2c0,117.7,-21.4,316.3,-175.7,316.3C304,713.5,282.6,514.9,282.6,397.2C282.6,281.1,304,82.5,458.3,82.5Zm0,-96.2C330,-13.7,175.7,77.9,175.7,397.2c0,317.8,151.2,412.5,282.6,412.5C585.1,809.7,741,718.1,741,397.2C741,333.1,736.4,-13.7,458.3,-13.7Z"/>
    <path transform="scale(0.001,-0.001)" id="f0_3" d="M464.4,432.4c99.4,0,165,56.5,165,146.6c0,71.8,-42.7,125.3,-134.4,125.3l-165,0l0,-271.9Zm217,-452.2L478.2,340.7l-148.2,0L330,0L227.6,0l0,796l270.5,0C631,796,736.4,733.3,736.4,579c0,-97.7,-65.7,-194,-162,-223L770,33.6L681.4,-19.8Z"/>
    <path transform="scale(0.001,-0.001)" id="f0_7" d="M482.8,-13.7c-233.8,0,-301,216.9,-301,412.5c0,192.5,70.3,410.9,297.9,410.9c107,0,200.2,-62.6,255.2,-152.8L647.8,600.4C609.6,664.6,551.5,713.5,473.6,713.5C316.3,713.5,288.8,516.4,288.8,395.7C288.8,271.9,316.3,82.5,476.7,82.5c51.9,0,103.9,13.8,148.2,41.3l0,209.3l-191,0l0,91.6l293.3,0l0,-351.4c-65.7,-51.9,-163.4,-87,-244.4,-87Z"/>
  </defs>

<g class="currentLayer" style=""><title>Layer 1</title><path id="path6" stroke="none" fill="#FFFFFF" d="M0,0 L0,227 L935,227 L935,0 Z " class="selected" opacity="0"/><g style="fill: rgb(35, 31, 32);" id="g14" class="" opacity="1">
    <use height="100%" width="100%" y="0" x="0" id="use8" transform="matrix(149.9,0,0,149.9,46.3,172.1)" xlink:href="#f0_4"/>
    <use height="100%" width="100%" y="0" x="0" id="use10" transform="matrix(149.9,0,0,149.9,147.1,172.1)" xlink:href="#f0_5"/>
    <use height="100%" width="100%" y="0" x="0" id="use12" transform="matrix(149.9,0,0,149.9,247.8,172.1)" xlink:href="#f0_6"/>
  </g><path id="path18" class="g1_1" d="M679.6,113.3c0,33.7,-27.3,61,-60.9,61c-33.7,0,-61,-27.3,-61,-61c0,-33.6,27.3,-60.9,61,-60.9c33.6,0,60.9,27.3,60.9,60.9Z"/><path id="path20" class="g2_1" d="M679.6,113.3c0,33.7,-27.3,61,-60.9,61c-33.7,0,-61,-27.3,-61,-61c0,-33.6,27.3,-60.9,61,-60.9c33.6,0,60.9,27.3,60.9,60.9Z"/><path id="path22" class="g3_1" d="M667.1,113.3c0,-26.7,-21.7,-48.4,-48.4,-48.4c-26.7,0,-48.4,21.7,-48.4,48.4c0,26.8,21.7,48.4,48.4,48.4c26.7,0,48.4,-21.6,48.4,-48.4Z"/><path id="path24" class="g4_1" d="M667.1,113.3c0,-26.7,-21.7,-48.4,-48.4,-48.4c-26.7,0,-48.4,21.7,-48.4,48.4c0,26.8,21.7,48.4,48.4,48.4c26.7,0,48.4,-21.6,48.4,-48.4Z"/><path id="path26" class="g5_1" d="M890.8,110.9L890.6,98.7l12.8,6.1l12.7,6.1L903.6,117L891,123.1Z"/><path id="path28" class="g2_1" d="M890.8,110.9l-210.1,0.8"/><g style="fill: rgb(35, 31, 32);" id="g34" class="">
    <use height="100%" width="100%" y="0" x="0" id="use30" transform="matrix(149.9,0,0,149.9,367.9,173.8)" xlink:href="#f0_8"/>
    <use height="100%" width="100%" y="0" x="0" id="use32" transform="matrix(120.4,0,0,120.4,504.8,175.3)" xlink:href="#f1_2"/>
  </g><g style="fill: rgb(35, 31, 32);" id="g50" class="">
    <use height="100%" width="100%" y="0" x="0" id="use42" transform="matrix(62.3,0,0,62.3,680.7,103.8)" xlink:href="#f0_9"/>
    <use height="100%" width="100%" y="0" x="0" id="use44" transform="matrix(62.3,0,0,62.3,718.7,103.8)" xlink:href="#f0_2"/>
    <use height="100%" width="100%" y="0" x="0" id="use46" transform="matrix(62.3,0,0,62.3,769,103.8)" xlink:href="#f0_3"/>
    <use height="100%" width="100%" y="0" x="0" id="use48" transform="matrix(62.3,0,0,62.3,819.4,103.8)" xlink:href="#f0_7"/>
  </g></g></svg>
